<?xml version="1.0" encoding="utf-8"?><svg viewBox="0 0 110 222" xmlns="http://www.w3.org/2000/svg" xmlns:xlink="http://www.w3.org/1999/xlink"><style>:root>svg{display:none}:root>svg:target{display:block}</style><svg fill="none" viewBox="0 0 110 50" id="$-X-line-1" xmlns="http://www.w3.org/2000/svg"><g fill="#478BF9"><path d="M84.949 1.008c13.506 0 24.496 10.99 24.496 24.496C109.445 39.01 98.455 50 84.949 50c-13.506 0-24.496-10.99-24.496-24.496 0-13.506 10.99-24.496 24.496-24.496zm0 47.227c12.533 0 22.731-10.197 22.731-22.73 0-12.534-10.198-22.732-22.731-22.732-12.534 0-22.731 10.198-22.731 22.731 0 12.534 10.197 22.731 22.73 22.731zM25.07 1.007a.88.88 0 110 1.76c-12.533 0-22.731 10.197-22.731 22.73 0 12.534 10.198 22.732 22.731 22.732a.88.88 0 110 1.76C11.564 49.988.574 38.998.574 25.492S11.564.997 25.07.997v.01z"/><path d="M80.236 21.172c0 .9.612 1.682 1.487 1.898l1.662.417V19.21H82.2c-1.08 0-1.96.88-1.96 1.96h-.005zm6.286 10.614h1.184c1.08 0 1.96-.88 1.96-1.96 0-.9-.612-1.683-1.487-1.899l-1.662-.417v4.276h.005z"/><path d="M84.954 5.567c-10.99 0-19.937 8.942-19.937 19.937 0 10.995 8.942 19.937 19.937 19.937 10.995 0 19.937-8.942 19.937-19.937 0-10.995-8.942-19.937-19.937-19.937zm7.862 16.788h-3.144v-1.574c0-.865-.705-1.575-1.575-1.575h-1.574v5.063l2.424.607a5.097 5.097 0 013.864 4.95 5.11 5.11 0 01-5.105 5.104h-1.183v3.982H83.38V34.93h-1.574a4.721 4.721 0 01-4.718-4.718v-1.575h3.144v1.575c0 .864.705 1.574 1.574 1.574h1.574v-5.063l-2.423-.607a5.097 5.097 0 01-3.864-4.95 5.11 5.11 0 015.104-5.103h1.183V12.08h3.144v3.983h1.575a4.721 4.721 0 014.718 4.718v1.574z"/></g><path d="M24.695.978h59.117a.88.88 0 110 1.76H24.695a.88.88 0 110-1.76zm-.129 47.224h59.117a.88.88 0 110 1.76H24.566a.88.88 0 110-1.76z" fill="#478BF9"/></svg><svg fill="none" viewBox="0 0 100 221" id="$-line-1" xmlns="http://www.w3.org/2000/svg"><path d="M99.11 171.065c0 27.323-22.232 49.556-49.555 49.556C22.233 220.621 0 198.388 0 171.065c0-27.322 22.233-49.555 49.555-49.555 27.323 0 49.556 22.233 49.556 49.555zm-95.54 0c0 25.356 20.63 45.986 45.985 45.986 25.356 0 45.986-20.63 45.986-45.986 0-25.355-20.63-45.985-45.986-45.985-25.355 0-45.985 20.63-45.985 45.985zM99.114 49.93a1.78 1.78 0 11-3.56 0c0-25.356-20.63-45.986-45.986-45.986-25.355 0-45.985 20.63-45.985 45.985a1.78 1.78 0 11-3.56 0C.023 22.607 22.256.374 49.58.374c27.322 0 49.555 22.233 49.555 49.555h-.02z" fill="#478BF9"/><path d="M40.012 162.312a3.952 3.952 0 003.008 3.84l3.362.844v-8.65h-2.394a3.971 3.971 0 00-3.966 3.966h-.01zm12.718 21.473h2.393a3.971 3.971 0 003.966-3.966 3.952 3.952 0 00-3.008-3.841l-3.362-.843v8.65h.01z" fill="#478BF9"/><path d="M49.556 130.742c-22.233 0-40.333 18.09-40.333 40.334 0 22.243 18.09 40.333 40.333 40.333s40.334-18.09 40.334-40.333c0-22.244-18.09-40.334-40.334-40.334zm15.905 33.964H59.1v-3.185a3.192 3.192 0 00-3.185-3.186H52.73v10.243l4.902 1.228a10.31 10.31 0 017.817 10.013c0 5.693-4.632 10.325-10.325 10.325H52.73v8.057h-6.36v-8.057h-3.185c-5.267 0-9.544-4.278-9.544-9.544v-3.185h6.36v3.185a3.192 3.192 0 003.184 3.185h3.185v-10.243l-4.902-1.228a10.31 10.31 0 01-7.817-10.013c0-5.693 4.632-10.325 10.325-10.325h2.394v-8.056h6.36v8.056h3.185c5.267 0 9.545 4.278 9.545 9.545v3.185zM99.173 49.17v119.595a1.779 1.779 0 11-3.56 0V49.17a1.779 1.779 0 113.56 0zm-95.535-.26v119.595a1.78 1.78 0 11-3.56 0V48.91a1.78 1.78 0 113.56 0z" fill="#478BF9"/></svg><svg fill="none" viewBox="0 0 110 50" id="crown-X-line-3" xmlns="http://www.w3.org/2000/svg"><path d="M67.287 42.167c-9.634-9.634-9.634-25.308 0-34.942s25.308-9.634 34.942 0 9.634 25.308 0 34.942-25.308 9.634-34.942 0zM101.065 8.39c-8.992-8.992-23.621-8.992-32.61 0-8.993 8.992-8.993 23.62 0 32.61 8.991 8.992 23.62 8.992 32.61 0 8.992-8.992 8.992-23.62 0-32.61z" fill="#fff"/><path d="M101.334 19.455a.81.81 0 01-.197-.318 17.096 17.096 0 00-4.149-6.67 17.135 17.135 0 00-6.67-4.15.824.824 0 01-.56-.78V1.532A.822.822 0 0190.78.733a24.655 24.655 0 0111.447 6.492 24.685 24.685 0 016.49 11.448.82.82 0 01-.799 1.024h-6.005a.825.825 0 01-.584-.244l.005.002zm-3.182-8.153a18.765 18.765 0 014.346 6.747h4.344a23.044 23.044 0 00-5.777-9.66 23.02 23.02 0 00-9.658-5.774v4.343a18.711 18.711 0 016.748 4.346l-.003-.002zM67.287 42.167a24.673 24.673 0 01-6.492-11.447.82.82 0 01.799-1.021h6.005a.82.82 0 01.78.56 17.098 17.098 0 004.15 6.67 17.134 17.134 0 006.67 4.149c.335.112.56.426.56.78v6.005a.826.826 0 01-1.024.799 24.68 24.68 0 01-11.448-6.49v-.005zm-4.613-10.824a23.039 23.039 0 005.778 9.66 23.038 23.038 0 009.66 5.778v-4.344a18.738 18.738 0 01-6.748-4.344 18.774 18.774 0 01-4.346-6.748h-4.344v-.002zM90 48.441a.822.822 0 01-.242-.583v-6.005c0-.354.225-.668.56-.78a17.097 17.097 0 006.67-4.15 17.118 17.118 0 004.149-6.67.823.823 0 01.78-.56h6.005c.253 0 .492.118.649.317a.82.82 0 01.15.705 24.706 24.706 0 01-6.492 11.448 24.653 24.653 0 01-11.447 6.492.827.827 0 01-.706-.15l-.075-.068-.002.004zm1.405-6.007v4.344a23.042 23.042 0 009.66-5.778 23.064 23.064 0 005.777-9.66h-4.344a18.72 18.72 0 01-4.346 6.748 18.743 18.743 0 01-6.747 4.346zM61.011 19.455a.824.824 0 01-.216-.783 24.652 24.652 0 016.493-11.447A24.685 24.685 0 0178.735.733a.827.827 0 01.705.15c.2.157.317.396.317.649v6.005a.822.822 0 01-.56.78 17.098 17.098 0 00-6.67 4.15 17.134 17.134 0 00-4.15 6.67.822.822 0 01-.78.56h-6.005a.826.826 0 01-.583-.24l.002-.002zm17.098-16.84a23.04 23.04 0 00-9.66 5.777 23.064 23.064 0 00-5.777 9.66h4.344a18.732 18.732 0 014.346-6.748 18.774 18.774 0 016.748-4.346V2.614z" fill="#fff"/><path d="M98.154 11.302c-7.385-7.385-19.403-7.387-26.788 0-7.388 7.387-7.385 19.404 0 26.789 7.385 7.384 19.401 7.387 26.788 0 7.387-7.388 7.385-19.404 0-26.79z" fill="#fff"/><g fill="#110A1D"><path d="M91.59 31.457l-13.608.09a1.038 1.038 0 00-1.03 1.045l.002.485A1.038 1.038 0 0078 34.108l13.607-.09a1.038 1.038 0 001.031-1.045l-.003-.485a1.038 1.038 0 00-1.044-1.03zm-11.754-8.213a.994.994 0 01-.433-.099l-1.062-.513a.98.98 0 01-.48-1.246l.487-1.214a.977.977 0 011.392-.485l1.265.722a.977.977 0 01.321 1.406l-.693 1.005a.973.973 0 01-.8.421l.003.003zm9.796-.066a.982.982 0 01-.803-.412l-.686-.968a.979.979 0 01.302-1.41l1.305-.766a.98.98 0 011.399.466l.491 1.178a.984.984 0 01-.463 1.254l-1.111.555a.99.99 0 01-.431.103h-.003z"/><path d="M78.767 30.638a1.414 1.414 0 01-1.338-.933l-2.27-6.248a2.411 2.411 0 01-1.342.215 2.398 2.398 0 01-2.088-2.359 2.396 2.396 0 114.416 1.268l4.318 2.09 3.304-4.787a2.417 2.417 0 01-1.015-.818 2.382 2.382 0 01-.442-1.37 2.4 2.4 0 012.38-2.414 2.401 2.401 0 012.404 2.216 2.39 2.39 0 01-1.434 2.377l3.362 4.737 4.248-2.125a2.477 2.477 0 01-.19-.478 2.328 2.328 0 01-.087-.626 2.395 2.395 0 114.789-.03c.01 1.26-.97 2.32-2.228 2.406l-.15.005a2.337 2.337 0 01-1.146-.283l-2.132 6.126a1.414 1.414 0 01-1.326.949l-12.033.08v.002z"/></g><path d="M24.496.01a.88.88 0 110 1.76C11.962 1.77 1.765 11.967 1.765 24.5c0 12.533 10.197 22.731 22.73 22.731a.88.88 0 110 1.76C10.99 48.992 0 38.002 0 24.496S10.99 0 24.496 0v.01z" fill="#fff"/><path d="M25.009.189h59.117a.88.88 0 110 1.76H25.009a.88.88 0 110-1.76zM24.88 47.417h59.117a.88.88 0 110 1.76H24.88a.88.88 0 110-1.76z" fill="#fff"/></svg><svg fill="none" viewBox="0 0 101 101" id="crown-line-2" xmlns="http://www.w3.org/2000/svg"><path d="M14.828 85.452c-19.49-19.49-19.49-51.199 0-70.688 19.49-19.49 51.198-19.49 70.688 0 19.49 19.49 19.49 51.198 0 70.688-19.49 19.489-51.198 19.489-70.688 0zm68.333-68.333c-18.191-18.19-47.786-18.19-65.972 0-18.192 18.191-18.192 47.786 0 65.972 18.19 18.191 47.785 18.191 65.972 0 18.191-18.19 18.191-47.785 0-65.972z" fill="#fff"/><path d="M83.7 39.505a1.643 1.643 0 01-.398-.645c-1.73-5.119-4.555-9.654-8.394-13.494a34.663 34.663 0 00-13.494-8.394 1.667 1.667 0 01-1.133-1.578V3.246a1.664 1.664 0 012.067-1.616 49.872 49.872 0 0123.158 13.134 49.929 49.929 0 0113.13 23.158 1.689 1.689 0 01-.304 1.431 1.66 1.66 0 01-1.313.64H84.87c-.455 0-.872-.185-1.18-.493l.01.005zM77.264 23.01a37.979 37.979 0 018.792 13.65h8.787a46.608 46.608 0 00-11.688-19.54A46.562 46.562 0 0063.618 5.436v8.787a37.852 37.852 0 0113.65 8.792l-.004-.004zM14.827 85.452A49.913 49.913 0 011.693 62.293a1.673 1.673 0 01.304-1.426 1.66 1.66 0 011.312-.64h12.148c.716 0 1.351.455 1.579 1.133 1.73 5.118 4.554 9.654 8.394 13.494a34.664 34.664 0 0013.494 8.394 1.663 1.663 0 011.132 1.578v12.148c0 .512-.237.995-.64 1.313a1.671 1.671 0 01-1.43.303 49.929 49.929 0 01-23.16-13.129v-.01zM5.494 63.554a46.608 46.608 0 0011.689 19.542 46.608 46.608 0 0019.541 11.688v-8.787a37.905 37.905 0 01-13.65-8.788 37.98 37.98 0 01-8.792-13.65H5.494v-.005zm55.283 34.591a1.663 1.663 0 01-.488-1.18V84.817c0-.716.455-1.351 1.133-1.579 5.119-1.73 9.655-4.555 13.494-8.394A34.642 34.642 0 0083.31 61.35a1.663 1.663 0 011.578-1.133h12.148c.512 0 .995.238 1.313.64.318.403.427.934.303 1.427A49.978 49.978 0 0185.52 85.442a49.873 49.873 0 01-23.16 13.134 1.673 1.673 0 01-1.426-.303c-.052-.048-.105-.09-.152-.138l-.005.01zm2.844-12.153v8.787a46.607 46.607 0 0019.542-11.688A46.657 46.657 0 0094.85 63.55h-8.787c-1.92 5.147-4.873 9.73-8.792 13.65-3.916 3.915-8.504 6.873-13.65 8.792zM2.13 39.505a1.667 1.667 0 01-.436-1.583 49.872 49.872 0 0113.134-23.158A49.936 49.936 0 0137.986 1.63a1.673 1.673 0 011.427.303c.402.318.64.801.64 1.313v12.148c0 .716-.456 1.35-1.133 1.578-5.12 1.73-9.655 4.555-13.494 8.394a34.664 34.664 0 00-8.394 13.494 1.663 1.663 0 01-1.579 1.133H3.305c-.445 0-.872-.175-1.18-.483l.005-.005zm34.59-34.07a46.609 46.609 0 00-19.54 11.69A46.658 46.658 0 005.49 36.666h8.788c1.92-5.147 4.872-9.73 8.792-13.65a37.981 37.981 0 0113.65-8.793V5.436z" fill="#fff"/><path d="M77.267 23.01c-14.94-14.939-39.254-14.944-54.194 0-14.944 14.945-14.94 39.255 0 54.195 14.94 14.94 39.25 14.944 54.195 0 14.944-14.945 14.94-39.255 0-54.194z" fill="#fff"/><path d="M63.994 63.785l-27.527.183a2.1 2.1 0 00-2.086 2.113l.006.981a2.1 2.1 0 002.114 2.086l27.528-.182a2.1 2.1 0 002.085-2.114l-.006-.981a2.1 2.1 0 00-2.114-2.086zM40.217 47.169c-.298 0-.602-.066-.877-.2l-2.147-1.037a1.984 1.984 0 01-.971-2.522l.986-2.455a1.977 1.977 0 012.815-.98l2.56 1.459a1.985 1.985 0 01.65 2.844l-1.404 2.033c-.365.53-.972.853-1.617.853l.005.005zm19.815-.133a1.986 1.986 0 01-1.626-.834l-1.388-1.957c-.323-.45-.436-1.02-.323-1.56.114-.54.455-1.014.934-1.294l2.64-1.55c.299-.175.64-.27.986-.274a1.983 1.983 0 011.844 1.218l.995 2.384a1.991 1.991 0 01-.938 2.536l-2.247 1.123a2 2 0 01-.872.208h-.005z" fill="#110A1D"/><path d="M38.055 62.128a2.86 2.86 0 01-2.707-1.887l-4.592-12.64a4.877 4.877 0 01-2.716.435 4.85 4.85 0 01-4.223-4.773 4.855 4.855 0 014.815-4.881 4.848 4.848 0 014.877 4.815 4.79 4.79 0 01-.322 1.763 5.304 5.304 0 01-.436.868l8.735 4.227 6.683-9.683a4.893 4.893 0 01-2.052-1.654 4.82 4.82 0 01-.896-2.773 4.855 4.855 0 015.176-4.872 4.858 4.858 0 014.503 4.474 4.833 4.833 0 01-.863 3.143 4.892 4.892 0 01-1.237 1.223 4.397 4.397 0 01-.801.44l6.801 9.584 8.594-4.299a5.01 5.01 0 01-.384-.967 4.713 4.713 0 01-.176-1.265 4.844 4.844 0 119.688-.062 4.853 4.853 0 01-4.507 4.868l-.304.01a4.96 4.96 0 01-1.445-.21 4.705 4.705 0 01-.872-.364L65.08 60.042a2.86 2.86 0 01-2.682 1.92l-24.343.16v.006z" fill="#110A1D"/></svg><svg fill="none" viewBox="0 0 100 221" id="crown-line-3" xmlns="http://www.w3.org/2000/svg"><path d="M14.617 206.26c-19.49-19.49-19.49-51.199 0-70.688 19.49-19.49 51.199-19.49 70.688 0 19.49 19.489 19.49 51.198 0 70.688-19.49 19.49-51.198 19.49-70.688 0zm68.333-68.333c-18.191-18.191-47.786-18.191-65.972 0-18.191 18.191-18.191 47.786 0 65.972 18.19 18.191 47.785 18.191 65.972 0 18.191-18.191 18.191-47.785 0-65.972z" fill="#fff"/><path d="M83.493 160.313a1.638 1.638 0 01-.398-.645c-1.73-5.118-4.555-9.654-8.394-13.494a34.672 34.672 0 00-13.494-8.394 1.666 1.666 0 01-1.133-1.578v-12.148a1.666 1.666 0 012.066-1.616 49.87 49.87 0 0123.16 13.134 49.923 49.923 0 0113.129 23.158c.123.498.01 1.024-.303 1.431-.318.408-.801.64-1.313.64H84.664c-.455 0-.872-.185-1.18-.493l.01.005zm-6.436-16.494a37.98 37.98 0 018.792 13.65h8.787a46.61 46.61 0 00-11.688-19.542 46.56 46.56 0 00-19.537-11.683v8.787a37.858 37.858 0 0113.65 8.793l-.005-.005zM14.616 206.26a49.915 49.915 0 01-13.134-23.159 1.672 1.672 0 01.304-1.426c.317-.408.8-.64 1.312-.64h12.148c.716 0 1.351.455 1.579 1.133 1.73 5.119 4.555 9.655 8.394 13.494a34.671 34.671 0 0013.494 8.394 1.662 1.662 0 011.133 1.578v12.148c0 .512-.237.995-.64 1.313a1.673 1.673 0 01-1.432.303 49.927 49.927 0 01-23.158-13.129v-.009zm-9.333-21.898a46.61 46.61 0 0011.689 19.542 46.6 46.6 0 0019.541 11.688v-8.787a37.912 37.912 0 01-13.65-8.788 37.98 37.98 0 01-8.792-13.65H5.283v-.005zm55.279 34.591a1.665 1.665 0 01-.488-1.18v-12.148c0-.716.455-1.351 1.133-1.579 5.119-1.73 9.655-4.554 13.494-8.394a34.642 34.642 0 008.394-13.494 1.663 1.663 0 011.578-1.132h12.148a1.662 1.662 0 011.616 2.066 49.973 49.973 0 01-13.133 23.158 49.87 49.87 0 01-23.159 13.134 1.673 1.673 0 01-1.426-.303c-.052-.048-.105-.09-.152-.138l-.005.01zm2.844-12.153v8.788A46.62 46.62 0 0082.948 203.9a46.658 46.658 0 0011.688-19.542H85.85c-1.92 5.147-4.873 9.73-8.793 13.65-3.915 3.915-8.502 6.873-13.65 8.792zM1.919 160.313a1.666 1.666 0 01-.436-1.583 49.866 49.866 0 0113.134-23.158 49.936 49.936 0 0123.158-13.134 1.673 1.673 0 011.427.303c.403.318.64.801.64 1.313v12.148c0 .716-.456 1.351-1.133 1.578-5.12 1.73-9.655 4.555-13.494 8.394a34.667 34.667 0 00-8.394 13.494 1.663 1.663 0 01-1.579 1.133H3.094c-.445 0-.872-.175-1.18-.483l.005-.005zm34.59-34.069a46.61 46.61 0 00-19.541 11.688 46.658 46.658 0 00-11.689 19.542h8.788c1.92-5.147 4.872-9.731 8.792-13.65a37.991 37.991 0 0113.65-8.793v-8.787z" fill="#fff"/><path d="M77.06 143.819c-14.939-14.94-39.254-14.945-54.193 0-14.945 14.944-14.94 39.254 0 54.194 14.94 14.939 39.25 14.944 54.194 0 14.944-14.945 14.94-39.255 0-54.194z" fill="#fff"/><path d="M63.78 184.593l-27.528.183a2.1 2.1 0 00-2.086 2.113l.007.981a2.1 2.1 0 002.113 2.086l27.528-.183a2.1 2.1 0 002.086-2.113l-.007-.981a2.1 2.1 0 00-2.113-2.086zm-23.778-16.616c-.298 0-.602-.066-.877-.199l-2.147-1.038a1.985 1.985 0 01-.971-2.522l.986-2.455a1.978 1.978 0 012.815-.981l2.56 1.46a1.986 1.986 0 01.65 2.844l-1.404 2.033a1.968 1.968 0 01-1.616.853l.004.005zm19.819-.133a1.986 1.986 0 01-1.626-.834l-1.388-1.957a1.983 1.983 0 01.611-2.854l2.64-1.55a2 2 0 01.986-.274 1.983 1.983 0 011.844 1.218l.995 2.384a1.99 1.99 0 01-.938 2.535l-2.247 1.124a2.01 2.01 0 01-.872.208h-.005z" fill="#110A1D"/><path d="M37.84 182.935a2.858 2.858 0 01-2.707-1.886l-4.592-12.641a4.926 4.926 0 01-.925.332 4.609 4.609 0 01-1.137.142 4.85 4.85 0 01-.654-.038 4.85 4.85 0 01-4.223-4.773 4.855 4.855 0 014.815-4.882 4.849 4.849 0 014.877 4.816c0 .616-.104 1.209-.322 1.763a5.283 5.283 0 01-.436.868l8.735 4.227 6.683-9.683a4.526 4.526 0 01-.805-.441 4.885 4.885 0 01-1.247-1.213 4.82 4.82 0 01-.896-2.773 4.855 4.855 0 015.176-4.872 4.858 4.858 0 014.503 4.474 4.835 4.835 0 01-2.1 4.365 4.33 4.33 0 01-.801.441l6.802 9.584 8.593-4.299a5.003 5.003 0 01-.384-.967 4.717 4.717 0 01-.176-1.265 4.845 4.845 0 119.688-.062 4.854 4.854 0 01-4.507 4.868l-.303.009c-.493 0-.977-.066-1.446-.208a4.77 4.77 0 01-.872-.365l-4.313 12.394a2.862 2.862 0 01-2.683 1.92l-24.343.161v.004z" fill="#110A1D"/><path d="M99.48 49.232a1.78 1.78 0 01-3.556 0c0-25.19-20.607-45.685-45.934-45.685-25.327 0-45.934 20.495-45.934 45.685a1.779 1.779 0 01-3.556 0C.5 22.088 22.708 0 50 0s49.5 22.088 49.5 49.232h-.02z" fill="#fff"/><path d="M99.54 50.04v119.595a1.779 1.779 0 11-3.56 0V50.04a1.779 1.779 0 113.56 0zm-95.543-.26v119.595a1.779 1.779 0 11-3.56 0V49.78a1.78 1.78 0 113.56 0z" fill="#fff"/></svg><svg fill="none" viewBox="0 0 32 32" id="facebook" xmlns="http://www.w3.org/2000/svg"><g clip-path="url(#fclip0_2824_165)"><path fill-rule="evenodd" clip-rule="evenodd" d="M0 16c0 8.82 7.176 16 16 16 8.82 0 16-7.18 16-16S24.82 0 16 0 0 7.18 0 16zM5.942 4.97A14.877 14.877 0 0116 1.065c3.87 0 7.4 1.479 10.056 3.901l-1.188 1.188A13.201 13.201 0 0016 2.75c-3.412 0-6.522 1.29-8.87 3.407L5.941 4.969zm-.974.974A14.877 14.877 0 001.066 16c0 3.87 1.479 7.4 3.9 10.055l1.188-1.187A13.201 13.201 0 012.75 16c0-3.41 1.288-6.52 3.405-8.869L4.968 5.944zM5.94 27.03A14.877 14.877 0 0016 30.934c3.87 0 7.4-1.478 10.055-3.9l-1.188-1.188A13.201 13.201 0 0116 29.25c-3.412 0-6.523-1.29-8.871-3.407L5.94 27.03zM30.934 16a14.88 14.88 0 01-3.905 10.06l-1.187-1.188A13.201 13.201 0 0029.25 16c0-3.412-1.29-6.522-3.407-8.87l1.187-1.188A14.877 14.877 0 0130.934 16z" fill="#478BF9"/><path d="M18.073 11.547h1.254v-2.12a17.407 17.407 0 00-1.827-.093c-1.813 0-3.053 1.106-3.053 3.133v1.746H12.4v2.374h2.047v6.08H16.9v-6.08h2.04l.307-2.373H16.9V12.7c0-.7.187-1.153 1.173-1.153z" fill="#110A1D"/></g><defs><clipPath id="fclip0_2824_165"><path fill="#fff" d="M0 0h32v32H0z"/></clipPath></defs></svg><svg fill="none" viewBox="0 0 32 32" id="instagram" xmlns="http://www.w3.org/2000/svg"><g clip-path="url(#gclip0_2824_177)"><path fill-rule="evenodd" clip-rule="evenodd" d="M0 16c0 8.82 7.176 16 16 16 8.82 0 16-7.18 16-16S24.82 0 16 0 0 7.18 0 16zM5.942 4.97A14.877 14.877 0 0116 1.065c3.87 0 7.4 1.479 10.056 3.901l-1.188 1.188A13.201 13.201 0 0016 2.75c-3.412 0-6.522 1.29-8.87 3.407L5.941 4.969zm-.974.974A14.877 14.877 0 001.066 16c0 3.87 1.479 7.4 3.9 10.055l1.188-1.187A13.201 13.201 0 012.75 16c0-3.41 1.288-6.52 3.405-8.869L4.968 5.944zM5.94 27.03A14.877 14.877 0 0016 30.934c3.87 0 7.4-1.478 10.055-3.9l-1.188-1.188A13.201 13.201 0 0116 29.25c-3.412 0-6.523-1.29-8.871-3.407L5.94 27.03zM30.934 16a14.88 14.88 0 01-3.905 10.06l-1.187-1.188A13.201 13.201 0 0029.25 16c0-3.412-1.29-6.522-3.407-8.87l1.187-1.188A14.877 14.877 0 0130.934 16z" fill="#478BF9"/><path d="M16 9.5c1.766 0 1.986.007 2.68.039.692.033 1.163.141 1.578.302.428.165.79.389 1.151.75.33.325.587.718.75 1.152.16.413.27.885.302 1.578.03.693.039.913.039 2.679 0 1.766-.006 1.986-.039 2.68-.032.692-.142 1.163-.302 1.578a3.174 3.174 0 01-.75 1.151c-.325.33-.718.586-1.151.75-.415.16-.886.27-1.579.302-.693.03-.913.039-2.679.039-1.766 0-1.986-.006-2.68-.039-.692-.032-1.163-.142-1.578-.302a3.178 3.178 0 01-1.151-.75 3.188 3.188 0 01-.75-1.151c-.16-.415-.27-.886-.302-1.579-.03-.693-.039-.913-.039-2.679 0-1.766.007-1.986.039-2.68.033-.692.141-1.163.302-1.578a3.17 3.17 0 01.75-1.151 3.183 3.183 0 011.152-.75c.414-.16.885-.27 1.578-.302.693-.03.913-.039 2.679-.039zm0 3.25a3.25 3.25 0 100 6.5 3.25 3.25 0 000-6.5zm4.225-.162a.812.812 0 10-1.624 0 .812.812 0 001.624 0zM16 14.05a1.95 1.95 0 110 3.9 1.95 1.95 0 010-3.9z" fill="#110A1D"/></g><defs><clipPath id="gclip0_2824_177"><path fill="#fff" d="M0 0h32v32H0z"/></clipPath></defs></svg><svg fill="none" viewBox="0 0 32 32" id="linkedin" xmlns="http://www.w3.org/2000/svg"><g clip-path="url(#hclip0_2824_189)"><path fill-rule="evenodd" clip-rule="evenodd" d="M0 16c0 8.82 7.176 16 16 16 8.82 0 16-7.18 16-16S24.82 0 16 0 0 7.18 0 16zM5.942 4.97A14.877 14.877 0 0116 1.065c3.87 0 7.4 1.479 10.056 3.901l-1.188 1.188A13.201 13.201 0 0016 2.75c-3.412 0-6.522 1.29-8.87 3.407L5.941 4.969zm-.974.974A14.877 14.877 0 001.066 16c0 3.87 1.479 7.4 3.9 10.055l1.188-1.187A13.201 13.201 0 012.75 16c0-3.41 1.288-6.52 3.405-8.869L4.968 5.944zM5.94 27.03A14.877 14.877 0 0016 30.934c3.87 0 7.4-1.478 10.055-3.9l-1.188-1.188A13.201 13.201 0 0116 29.25c-3.412 0-6.523-1.29-8.871-3.407L5.94 27.03zM30.934 16a14.88 14.88 0 01-3.905 10.06l-1.187-1.188A13.201 13.201 0 0029.25 16c0-3.412-1.29-6.522-3.407-8.87l1.187-1.188A14.877 14.877 0 0130.934 16z" fill="#478BF9"/><path d="M9.875 10.752c0-.484.403-.877.9-.877h10.45c.497 0 .9.393.9.877v10.496a.889.889 0 01-.9.877h-10.45a.889.889 0 01-.9-.877V10.752zm3.784 9.378v-5.532h-1.838v5.532h1.838zm-.918-6.287c.64 0 1.04-.425 1.04-.956-.012-.543-.399-.956-1.028-.956-.63 0-1.04.414-1.04.956 0 .531.398.955 1.016.955h.012zm3.757 6.287v-3.09c0-.165.013-.33.062-.448.132-.33.434-.672.943-.672.665 0 .93.507.93 1.25v2.96h1.84v-3.173c0-1.7-.907-2.49-2.117-2.49-.975 0-1.413.536-1.658.914v.019h-.012l.012-.02v-.782h-1.837c.023.52 0 5.532 0 5.532h1.837z" fill="#110A1D"/></g><defs><clipPath id="hclip0_2824_189"><path fill="#fff" d="M0 0h32v32H0z"/></clipPath></defs></svg><svg fill="none" viewBox="0 0 100 100" id="m-line-1" xmlns="http://www.w3.org/2000/svg"><path d="M49.733 99.39C22.41 99.39.187 77.156.187 49.843.187 22.532 22.42.3 49.733.3c27.312 0 49.545 22.233 49.545 49.545 0 27.313-22.233 49.545-49.546 49.545zm0-95.791c-25.502 0-46.246 20.744-46.246 46.245 0 25.502 20.744 46.246 46.245 46.246 25.502 0 46.246-20.744 46.246-46.246 0-25.5-20.744-46.245-46.245-46.245z" fill="#7DDACF"/><path d="M82.065 14.491L66.726 29.83l3.018 3.018L85.082 17.51l-3.017-3.018zM29.264 67.29L13.926 82.628l3.017 3.018 15.338-15.338-3.017-3.018zm40.929.008l-3.017 3.017 15.338 15.338 3.017-3.017-15.338-15.338zM16.94 14.037l-3.018 3.017 15.33 15.331 3.018-3.017-15.33-15.331zm44.877 37.14a2.54 2.54 0 000-3.602l-2.124-2.113a2.538 2.538 0 00-3.601 0l-1.145 1.145-1.322-1.322a2.538 2.538 0 00-3.601 0l-1.145 1.156-1.322-1.332c-1-1-2.613-1-3.602 0l-7.026 7.025c-.052.052-.052.136 0 .198a2.425 2.425 0 003.415 0l4.527-4.528a1.25 1.25 0 011.77 0l.333.334a.15.15 0 010 .218l-3.778 3.778c-.052.052-.052.136 0 .198a2.425 2.425 0 003.414 0l4.34-4.34a1.25 1.25 0 011.77 0l.333.333c.052.052.052.135 0 .198l-3.643 3.643c-.053.052-.053.135 0 .197a2.425 2.425 0 003.414 0l4.194-4.194a1.25 1.25 0 011.77 0l.718.718a.735.735 0 010 1.03l-.115.115a.735.735 0 01-1.03 0l-.926-.926c-.053-.053-.136-.053-.198 0l-1.603 1.602c-.052.052-.052.136 0 .198l1.447 1.447c.999 1 2.612 1 3.601 0l1.145-1.145-.01-.031z" fill="#7DDACF"/><path d="M49.734 11.853c-20.984 0-37.992 17.008-37.992 37.991 0 20.984 17.008 37.992 37.992 37.992 20.983 0 37.991-17.008 37.991-37.992 0-20.983-17.008-37.991-37.991-37.991zm1.55 11.73c6.1.355 11.637 2.79 15.926 6.6l-5.486 5.485a18.517 18.517 0 00-10.44-4.33v-7.754zm-3.09 0v7.755a18.446 18.446 0 00-10.44 4.33l-5.486-5.485a26.214 26.214 0 0115.925-6.6zm-18.112 8.785l5.485 5.486a18.517 18.517 0 00-4.33 10.44h-7.754a26.215 26.215 0 016.6-15.925zm-6.599 19.017h7.755a18.446 18.446 0 004.33 10.44l-5.486 5.485a26.215 26.215 0 01-6.599-15.925zm24.71 24.71a26.215 26.215 0 01-15.925-6.599l5.485-5.485a18.516 18.516 0 0010.44 4.33v7.754zm-14.426-26.26c0-8.817 7.15-15.968 15.967-15.968 8.816 0 15.967 7.151 15.967 15.967S58.55 65.801 49.734 65.801c-8.817 0-15.967-7.15-15.967-15.967zm17.517 26.26v-7.754a18.445 18.445 0 0010.44-4.33l5.486 5.485a26.215 26.215 0 01-15.925 6.6zm18.111-8.785l-5.485-5.485a18.517 18.517 0 004.33-10.44h7.755a26.214 26.214 0 01-6.6 15.925zM68.24 48.294a18.446 18.446 0 00-4.33-10.44l5.486-5.486a26.214 26.214 0 016.599 15.926H68.24z" fill="#7DDACF"/></svg><svg fill="none" viewBox="0 0 100 100" id="m-line-2" xmlns="http://www.w3.org/2000/svg"><path d="M49.545 99.123C22.222 99.123 0 76.891 0 49.578 0 22.266 22.233.033 49.545.033S99.09 22.266 99.09 49.578c0 27.313-22.233 49.545-49.545 49.545zm0-95.79c-25.501 0-46.246 20.744-46.246 46.245 0 25.501 20.745 46.246 46.246 46.246s46.246-20.745 46.246-46.246c0-25.5-20.745-46.245-46.246-46.245z" fill="#fff"/><path d="M81.873 14.224L66.535 29.562l3.017 3.018 15.339-15.338-3.018-3.018zM29.076 67.023L13.738 82.361l3.018 3.018L32.094 70.04l-3.018-3.018zm40.941-.003L67 70.038l15.338 15.338 3.018-3.017L70.017 67.02zm-53.25-53.26l-3.017 3.017 15.33 15.33 3.018-3.017-15.33-15.33zm44.874 37.15c1-.998 1-2.612 0-3.6l-2.123-2.114a2.54 2.54 0 00-3.602 0l-1.145 1.145-1.322-1.322a2.538 2.538 0 00-3.601 0l-1.145 1.156-1.322-1.333a2.538 2.538 0 00-3.601 0l-7.026 7.026c-.052.052-.052.136 0 .198a2.425 2.425 0 003.414 0l4.528-4.528a1.25 1.25 0 011.77 0l.332.333a.15.15 0 010 .219l-3.778 3.778c-.052.052-.052.136 0 .198a2.425 2.425 0 003.414 0l4.34-4.34a1.25 1.25 0 011.77 0l.333.333c.052.052.052.135 0 .198L49.234 51.9c-.052.052-.052.135 0 .197a2.425 2.425 0 003.414 0l4.194-4.194a1.25 1.25 0 011.77 0l.718.718a.735.735 0 010 1.03l-.114.115a.735.735 0 01-1.03 0l-.927-.927c-.052-.052-.135-.052-.198 0l-1.603 1.603c-.052.052-.052.136 0 .198l1.447 1.447c1 1 2.613 1 3.601 0l1.145-1.145-.01-.031z" fill="#fff"/><path d="M49.546 11.576c-20.984 0-37.991 17.008-37.991 37.992 0 20.984 17.007 37.991 37.991 37.991 20.984 0 37.992-17.007 37.992-37.991 0-20.984-17.008-37.992-37.992-37.992zm1.551 11.73c6.1.355 11.637 2.79 15.925 6.6l-5.485 5.485a18.517 18.517 0 00-10.44-4.33v-7.754zm-3.091 0v7.755a18.446 18.446 0 00-10.44 4.33l-5.486-5.485a26.214 26.214 0 0115.926-6.6zm-18.111 8.786l5.485 5.485a18.517 18.517 0 00-4.33 10.44h-7.755a26.215 26.215 0 016.6-15.925zm-6.6 19.016h7.755a18.446 18.446 0 004.33 10.44l-5.485 5.486a26.214 26.214 0 01-6.6-15.926zm24.71 24.71A26.214 26.214 0 0132.08 69.22l5.486-5.485a18.517 18.517 0 0010.44 4.33v7.755zM33.58 49.558c0-8.817 7.151-15.967 15.967-15.967s15.967 7.15 15.967 15.966c0 8.817-7.15 15.967-15.967 15.967-8.816 0-15.967-7.15-15.967-15.967zm17.518 26.26v-7.754a18.446 18.446 0 0010.44-4.33l5.485 5.485a26.214 26.214 0 01-15.925 6.6zm18.11-8.784l-5.484-5.486a18.517 18.517 0 004.33-10.44h7.754a26.214 26.214 0 01-6.6 15.926zm-1.154-19.017a18.445 18.445 0 00-4.33-10.44l5.485-5.485a26.215 26.215 0 016.6 15.925h-7.755z" fill="#fff"/></svg><svg fill="none" viewBox="0 0 100 100" id="m-line-3" xmlns="http://www.w3.org/2000/svg"><path d="M50.397 99.84C23.074 99.84.852 77.609.852 50.297.852 22.983 23.084.75 50.397.75c27.312 0 49.545 22.233 49.545 49.546 0 27.312-22.233 49.545-49.545 49.545zm0-95.79C24.895 4.05 4.15 24.794 4.15 50.296c0 25.5 20.744 46.245 46.246 46.245 25.5 0 46.245-20.744 46.245-46.245 0-25.502-20.744-46.246-46.245-46.246z" fill="#478BF9"/><path d="M82.717 14.949L67.38 30.287l3.018 3.018 15.338-15.339-3.018-3.017zM29.924 67.74L14.586 83.08l3.018 3.017 15.338-15.338-3.018-3.017zm40.938.016l-3.018 3.017 15.338 15.338 3.018-3.017-15.338-15.338zM17.6 14.487l-3.018 3.018 15.331 15.33 3.018-3.017L17.6 14.487zm44.88 37.141c1-1 1-2.613 0-3.602l-2.123-2.113a2.537 2.537 0 00-3.6 0l-1.146 1.145-1.322-1.322a2.538 2.538 0 00-3.601 0l-1.145 1.156-1.322-1.333a2.538 2.538 0 00-3.601 0l-7.026 7.026c-.052.052-.052.136 0 .198a2.425 2.425 0 003.414 0l4.527-4.528a1.25 1.25 0 011.77 0l.333.333a.151.151 0 010 .219l-3.778 3.778c-.052.052-.052.136 0 .198a2.425 2.425 0 003.414 0l4.34-4.34a1.25 1.25 0 011.77 0l.333.333c.052.052.052.135 0 .197l-3.643 3.644c-.052.052-.052.135 0 .197a2.425 2.425 0 003.414 0l4.194-4.194a1.25 1.25 0 011.77 0l.718.718a.735.735 0 010 1.03l-.114.115a.735.735 0 01-1.03 0l-.927-.927c-.052-.052-.136-.052-.198 0l-1.603 1.603c-.052.052-.052.136 0 .198l1.447 1.447c1 1 2.612 1 3.601 0l1.145-1.145-.01-.031z" fill="#478BF9"/><path d="M50.398 12.304c-20.984 0-37.992 17.008-37.992 37.991 0 20.984 17.008 37.992 37.992 37.992 20.984 0 37.991-17.008 37.991-37.992 0-20.983-17.007-37.991-37.991-37.991zm1.55 11.73c6.1.354 11.638 2.79 15.926 6.6l-5.485 5.485a18.517 18.517 0 00-10.44-4.33v-7.755zm-3.09 0v7.755a18.445 18.445 0 00-10.44 4.33l-5.486-5.485a26.215 26.215 0 0115.925-6.6zM30.745 32.82l5.486 5.486a18.517 18.517 0 00-4.33 10.44h-7.755a26.214 26.214 0 016.6-15.926zm-6.599 19.017h7.755a18.446 18.446 0 004.33 10.44l-5.486 5.485a26.214 26.214 0 01-6.599-15.925zm24.71 24.71a26.215 26.215 0 01-15.925-6.599l5.485-5.485a18.517 18.517 0 0010.44 4.33v7.754zM34.43 50.287c0-8.817 7.15-15.968 15.967-15.968 8.816 0 15.967 7.15 15.967 15.967 0 8.816-7.151 15.967-15.967 15.967S34.43 59.102 34.43 50.285zm17.518 26.26v-7.754a18.445 18.445 0 0010.44-4.33l5.485 5.485a26.215 26.215 0 01-15.925 6.6zm18.11-8.785l-5.485-5.485a18.517 18.517 0 004.33-10.44h7.755a26.214 26.214 0 01-6.6 15.925zm-1.155-19.016a18.445 18.445 0 00-4.33-10.44l5.486-5.486a26.214 26.214 0 016.599 15.926h-7.755z" fill="#478BF9"/></svg><svg fill="none" viewBox="0 0 100 100" id="shield-line-1" xmlns="http://www.w3.org/2000/svg"><path d="M49.553 99.121c-12.699 0-25.387-4.83-35.056-14.499-19.33-19.329-19.33-50.773 0-70.102C23.864 5.152 36.313 0 49.553 0c13.24 0 25.689 5.152 35.056 14.52 19.329 19.329 19.329 50.773 0 70.102-9.659 9.66-22.358 14.5-35.056 14.5zm-32.454-17.1c17.892 17.892 47.005 17.892 64.898 0 17.892-17.893 17.892-47.006 0-64.899-8.67-8.67-20.193-13.437-32.455-13.437-12.26 0-23.783 4.777-32.454 13.437-17.892 17.893-17.892 47.006 0 64.898h.01z" fill="#9DADF2"/><path d="M48.897 68.114c.177.427.594.677 1.03.677.147 0 .292-.031.438-.084a25.697 25.697 0 009.201-6.567 1.117 1.117 0 00-.094-1.572 1.117 1.117 0 00-1.571.094 23.266 23.266 0 01-8.4 5.995c-.562.24-.833.895-.593 1.457h-.01z" fill="#9DADF2"/><path d="M68.443 32.434l-18.486-7.39a1.15 1.15 0 00-.833 0l-18.485 7.39a1.095 1.095 0 00-.698 1.03v13.24c.021 12.22 7.744 23.263 19.215 27.468a1.195 1.195 0 00.77 0c11.47-4.215 19.194-15.248 19.214-27.468v-13.24c0-.458-.27-.864-.697-1.03zm-1.53 14.27c-.02 11.116-6.995 21.244-17.362 25.23C39.184 67.948 32.2 57.82 32.18 46.704v-12.48l17.372-6.943 17.362 6.943v12.48z" fill="#9DADF2"/><path d="M41.829 34.172a1.103 1.103 0 00-.854 0l-4.403 1.759a1.095 1.095 0 00-.697 1.03v4.694a1.115 1.115 0 002.227 0v-3.934l3.696-1.478c.28-.114.489-.323.614-.604a1.142 1.142 0 00-.593-1.468h.01z" fill="#9DADF2"/><path d="M77.708 21.421C70.193 13.896 60.19 9.763 49.553 9.763c-10.638 0-20.63 4.143-28.156 11.658-15.519 15.52-15.519 40.781 0 56.31 7.765 7.766 17.955 11.638 28.156 11.638 10.2 0 20.39-3.883 28.155-11.637 15.52-15.52 15.52-40.781 0-56.31zm-5.506 25.283c.031 14.124-8.993 26.48-22.452 30.757a.64.64 0 01-.395 0c-13.458-4.278-22.483-16.633-22.451-30.757V31.08c0-.26.156-.5.405-.603l22.004-8.796a.611.611 0 01.24-.041c.083 0 .166.01.24.041l22.003 8.806c.25.094.406.333.406.604v15.623-.01z" fill="#9DADF2"/></svg><svg fill="none" viewBox="0 0 100 100" id="shield-line-3" xmlns="http://www.w3.org/2000/svg"><path d="M49.983 99.153c-12.699 0-25.387-4.83-35.057-14.5-19.329-19.328-19.329-50.773 0-70.102C24.294 5.184 36.743.031 49.983.031c13.24 0 25.688 5.153 35.056 14.52 19.329 19.33 19.329 50.774 0 70.102-9.66 9.66-22.358 14.5-35.056 14.5zM17.529 82.05c17.892 17.893 47.005 17.893 64.897 0 17.893-17.892 17.893-47.005 0-64.897-8.67-8.67-20.193-13.438-32.454-13.438S26.188 8.493 17.518 17.154c-17.892 17.892-17.892 47.005 0 64.897h.01z" fill="#9DADF2"/><path d="M49.327 68.156c.177.426.593.676 1.03.676.146 0 .292-.031.438-.083a25.698 25.698 0 009.2-6.568 1.117 1.117 0 00-.093-1.572 1.117 1.117 0 00-1.572.094 23.265 23.265 0 01-8.4 5.995 1.12 1.12 0 00-.593 1.458h-.01z" fill="#9DADF2"/><path d="M68.873 32.464l-18.486-7.39a1.15 1.15 0 00-.833 0l-18.485 7.39a1.096 1.096 0 00-.698 1.03v13.24c.021 12.22 7.744 23.264 19.215 27.469.125.042.25.062.385.062s.26-.02.385-.062c11.47-4.216 19.193-15.249 19.214-27.469v-13.24c0-.457-.27-.863-.697-1.03zm-1.53 14.27c-.021 11.117-6.995 21.244-17.362 25.231-10.367-3.987-17.351-14.114-17.372-25.23v-12.48l17.372-6.943 17.362 6.943v12.48z" fill="#9DADF2"/><path d="M42.258 34.203a1.103 1.103 0 00-.853 0l-4.403 1.759a1.096 1.096 0 00-.697 1.03v4.694a1.115 1.115 0 002.227 0v-3.934l3.695-1.478c.281-.115.49-.323.614-.604.115-.27.115-.572 0-.853a1.142 1.142 0 00-.593-.614h.01z" fill="#9DADF2"/><path d="M78.126 21.452C70.61 13.927 60.608 9.794 49.97 9.794c-10.638 0-20.63 4.143-28.156 11.658-15.519 15.52-15.519 40.781 0 56.31C29.58 85.529 39.77 89.4 49.971 89.4c10.2 0 20.39-3.883 28.155-11.637 15.52-15.52 15.52-40.781 0-56.31zM72.62 46.735c.031 14.124-8.993 26.48-22.452 30.757a.642.642 0 01-.395 0C36.314 73.214 27.29 60.86 27.32 46.735V31.11c0-.26.156-.5.406-.603l22.004-8.796a.611.611 0 01.24-.041c.083 0 .166.01.239.041l22.004 8.806c.25.094.406.333.406.604v15.623-.01z" fill="#9DADF2"/></svg><svg fill="none" viewBox="0 0 100 100" id="soccer-line-1" xmlns="http://www.w3.org/2000/svg"><path d="M49.877 99.932C22.554 99.932.332 77.7.332 50.387.332 23.075 22.565.842 49.877.842s49.545 22.233 49.545 49.545c0 27.313-22.233 49.545-49.545 49.545zm0-95.79C24.376 4.142 3.63 24.886 3.63 50.387c0 25.501 20.745 46.246 46.246 46.246s46.245-20.745 46.245-46.246c0-25.5-20.744-46.245-46.245-46.245z" fill="#9DADF2"/><path d="M65.951 19.453c-.25 0-.5-.052-.728-.167a34.317 34.317 0 00-15.343-3.58 34.316 34.316 0 00-15.342 3.58 1.647 1.647 0 01-1.894-.312l-8.515-8.514a1.642 1.642 0 01-.468-1.374c.062-.51.354-.958.791-1.218A49.457 49.457 0 0149.891.842a49.557 49.557 0 0125.438 7.026c.438.26.729.708.792 1.218.062.51-.115 1.01-.469 1.374l-8.514 8.514a1.68 1.68 0 01-1.176.479h-.01zm-16.07-7.047a37.64 37.64 0 0115.727 3.404l6.162-6.162a46.153 46.153 0 00-21.89-5.506 46.152 46.152 0 00-21.889 5.506l6.162 6.162a37.64 37.64 0 0115.727-3.404zm-.002 87.526a49.556 49.556 0 01-25.44-7.025 1.646 1.646 0 01-.79-1.218c-.063-.51.114-1.01.468-1.374l8.514-8.514c.5-.5 1.27-.625 1.895-.313a34.317 34.317 0 0015.342 3.58 34.319 34.319 0 0015.342-3.58 1.647 1.647 0 011.895.313l8.514 8.514c.364.364.53.864.468 1.374-.062.51-.353.957-.79 1.218a49.456 49.456 0 01-25.44 7.025h.022zm-21.89-8.805a46.152 46.152 0 0021.89 5.506 46.15 46.15 0 0021.889-5.506l-6.162-6.162a37.642 37.642 0 01-15.727 3.403 37.642 37.642 0 01-15.728-3.403l-6.162 6.162zm62.994-14.5c-.438 0-.854-.166-1.166-.478l-8.515-8.515a1.65 1.65 0 01-.312-1.894 34.317 34.317 0 003.58-15.342 34.317 34.317 0 00-3.58-15.343 1.644 1.644 0 01.312-1.894l8.515-8.514a1.645 1.645 0 011.374-.469c.51.063.957.354 1.217.791a49.456 49.456 0 017.026 25.44 49.456 49.456 0 01-7.026 25.438c-.26.437-.707.729-1.217.79h-.209v-.01zm-6.527-10.512l6.162 6.162a46.152 46.152 0 005.506-21.89 46.15 46.15 0 00-5.506-21.889l-6.162 6.162a37.64 37.64 0 013.404 15.727 37.64 37.64 0 01-3.404 15.728zM8.773 76.628c-.073 0-.135 0-.198-.01a1.645 1.645 0 01-1.218-.792A49.456 49.456 0 01.332 50.387 49.456 49.456 0 017.357 24.95c.26-.438.708-.729 1.218-.791.51-.063 1.01.114 1.374.468l8.514 8.514c.5.5.625 1.27.313 1.895a34.316 34.316 0 00-3.581 15.342 34.317 34.317 0 003.58 15.342 1.644 1.644 0 01-.312 1.895L9.95 76.128c-.312.312-.728.49-1.166.49l-.01.01zm.364-48.13a46.152 46.152 0 00-5.506 21.89 46.15 46.15 0 005.506 21.889l6.162-6.162a37.64 37.64 0 01-3.403-15.728 37.64 37.64 0 013.403-15.727l-6.162-6.162z" fill="#9DADF2"/><path d="M49.878 12.396c-20.942 0-37.992 17.039-37.992 37.991 0 20.953 17.04 37.992 37.992 37.992 20.953 0 37.992-17.04 37.992-37.992 0-20.952-17.04-37.991-37.992-37.991zm21.38 25.511a24.473 24.473 0 013.247 10.013.368.368 0 01-.177.354 31.822 31.822 0 00-7.255 6.09.341.341 0 01-.385.103l-4.694-1.53a.36.36 0 01-.25-.301 32.68 32.68 0 00-3.591-11.055.368.368 0 01.031-.385l2.904-3.996a.395.395 0 01.302-.157h.083c3.102.687 6.287.916 9.451.656a.376.376 0 01.354.188l-.02.02zM59.182 53.291a.378.378 0 01-.083.281 24.852 24.852 0 01-9.076 6.579.332.332 0 01-.281 0 25.093 25.093 0 01-9.077-6.579.378.378 0 01-.083-.28 30.144 30.144 0 013.477-10.7.346.346 0 01.239-.178 27.175 27.175 0 015.59-.583c1.883 0 3.757.198 5.589.583a.353.353 0 01.24.177 30.353 30.353 0 013.476 10.7h-.01zm-.562-25.834s.125-.104.25-.104c.042 0 .094 0 .146.031 3.83 1.52 7.255 4.018 9.92 7.213a.345.345 0 01.051.386.357.357 0 01-.333.218 28.67 28.67 0 01-6.994-.78.37.37 0 01-.23-.167 29.502 29.502 0 01-2.903-6.422.345.345 0 01.104-.375h-.01zm-14-1.249a25.252 25.252 0 0110.524 0c.135.031.25.135.28.27a31.904 31.904 0 003.55 8.786.382.382 0 01-.02.405l-2.884 3.977a.36.36 0 01-.364.145 29.65 29.65 0 00-11.647 0 .361.361 0 01-.365-.145l-2.883-3.977a.38.38 0 01-.02-.405 31.904 31.904 0 003.549-8.785.373.373 0 01.28-.271zm-13.79 8.39c2.664-3.206 6.088-5.704 9.919-7.214a.35.35 0 01.395.073c.052.052.167.177.104.375a29.279 29.279 0 01-2.904 6.422.37.37 0 01-.229.166c-2.28.542-4.632.812-6.994.781a.357.357 0 01-.333-.218.345.345 0 01.052-.386h-.01zm-2.322 3.31a.368.368 0 01.323-.188h.031c3.175.25 6.36.031 9.451-.656a.352.352 0 01.375.146l2.904 3.997a.37.37 0 01.031.385 32.674 32.674 0 00-3.591 11.054.389.389 0 01-.25.302l-4.694 1.53a.379.379 0 01-.385-.104 31.823 31.823 0 00-7.255-6.09.389.389 0 01-.177-.353 24.423 24.423 0 013.248-10.013l-.01-.01zm1.135 25.646a.366.366 0 01-.313.25c-.072 0-.24 0-.354-.167A24.697 24.697 0 0125.19 51.97a.356.356 0 01.187-.343c.063-.031.23-.104.396.02a28.91 28.91 0 015.204 4.747.353.353 0 01.083.27 28.567 28.567 0 01-1.426 6.902l.01-.01zm10.283 9.503c-3.247-1.426-6.11-3.518-8.503-6.203a.376.376 0 01-.073-.385 31.85 31.85 0 002.29-9.191.359.359 0 01.25-.313l4.642-1.509s.072-.02.114-.02a.35.35 0 01.27.124 27.696 27.696 0 009.431 6.86.363.363 0 01.218.333v4.881a.352.352 0 01-.218.334 31.831 31.831 0 00-8.046 5.027.35.35 0 01-.385.052l.01.01zm16.373 1.03a.347.347 0 01-.27.292 25.032 25.032 0 01-12.283 0 .363.363 0 01-.27-.291.366.366 0 01.145-.375 29.036 29.036 0 016.131-3.487.332.332 0 01.281 0 29.56 29.56 0 016.13 3.487.382.382 0 01.146.375h-.01zm12.064-7.223a24.546 24.546 0 01-8.504 6.193.366.366 0 01-.385-.052 31.653 31.653 0 00-8.046-5.027.363.363 0 01-.219-.333v-4.882c0-.146.084-.28.219-.333a27.595 27.595 0 009.43-6.86.35.35 0 01.27-.124c.042 0 .074 0 .115.02l4.642 1.51c.136.042.24.166.25.312a31.934 31.934 0 002.29 9.191.355.355 0 01-.073.385h.01zm2.435-3.216a.356.356 0 01-.354.166.359.359 0 01-.312-.25 29.596 29.596 0 01-1.426-6.9c0-.094.021-.198.084-.27a29.3 29.3 0 015.204-4.747.36.36 0 01.208-.073c.083 0 .146.031.187.052a.34.34 0 01.188.343 24.696 24.696 0 01-3.789 11.668l.01.01z" fill="#9DADF2"/></svg><svg fill="none" viewBox="0 0 100 100" id="soccer-line-3" xmlns="http://www.w3.org/2000/svg"><path d="M50.127 99.39C22.804 99.39.582 77.155.582 49.843.582 22.532 22.815.3 50.127.3s49.545 22.233 49.545 49.545S77.44 99.39 50.127 99.39zm0-95.791c-25.501 0-46.245 20.744-46.245 46.245 0 25.501 20.744 46.246 46.245 46.246 25.501 0 46.246-20.745 46.246-46.246S75.628 3.6 50.127 3.6z" fill="#fff"/><path d="M66.198 18.9c-.25 0-.5-.053-.729-.167a34.317 34.317 0 00-15.342-3.58 34.317 34.317 0 00-15.343 3.58 1.647 1.647 0 01-1.894-.312l-8.514-8.515a1.642 1.642 0 01-.469-1.374c.063-.51.354-.957.791-1.217A49.456 49.456 0 0150.139.289a49.557 49.557 0 0125.438 7.026c.437.26.728.707.79 1.217.063.51-.114 1.01-.468 1.374l-8.514 8.515a1.68 1.68 0 01-1.176.479h-.01zm-16.071-7.047a37.642 37.642 0 0115.727 3.403l6.162-6.161a46.152 46.152 0 00-21.89-5.507 46.153 46.153 0 00-21.889 5.507l6.162 6.161a37.642 37.642 0 0115.728-3.403zm-.002 87.537a49.557 49.557 0 01-25.439-7.026 1.646 1.646 0 01-.79-1.218c-.063-.51.114-1.01.468-1.374l8.514-8.515c.5-.5 1.27-.624 1.894-.312a34.317 34.317 0 0015.343 3.58 34.317 34.317 0 0015.342-3.58 1.647 1.647 0 011.894.312l8.514 8.515c.365.364.531.864.469 1.374a1.65 1.65 0 01-.791 1.218 49.456 49.456 0 01-25.439 7.025h.02zm-21.89-8.806a46.152 46.152 0 0021.89 5.506c7.66 0 15.186-1.895 21.89-5.506l-6.163-6.162a37.642 37.642 0 01-15.727 3.403 37.642 37.642 0 01-15.727-3.403l-6.162 6.162zm62.998-14.51c-.437 0-.854-.166-1.166-.479l-8.514-8.514a1.65 1.65 0 01-.312-1.894 34.318 34.318 0 003.58-15.343 34.317 34.317 0 00-3.58-15.342 1.644 1.644 0 01.312-1.894l8.514-8.515c.364-.364.864-.53 1.374-.468.51.062.958.354 1.218.791a49.456 49.456 0 017.026 25.439 49.457 49.457 0 01-7.026 25.438c-.26.438-.708.729-1.218.791h-.208v-.01zm-6.526-10.513l6.162 6.162a46.152 46.152 0 005.506-21.89c0-7.66-1.895-15.185-5.507-21.888l-6.161 6.161a37.64 37.64 0 013.403 15.728 37.64 37.64 0 01-3.403 15.727zM9.023 76.074c-.072 0-.135 0-.197-.01a1.645 1.645 0 01-1.218-.791 49.456 49.456 0 01-7.026-25.44 49.456 49.456 0 017.026-25.438c.26-.437.708-.728 1.218-.79.51-.063 1.01.114 1.374.468l8.514 8.514c.5.5.624 1.27.312 1.894a34.317 34.317 0 00-3.58 15.343 34.316 34.316 0 003.58 15.342 1.645 1.645 0 01-.312 1.894L10.2 75.574c-.313.313-.729.49-1.166.49l-.01.01zm.365-48.13a46.152 46.152 0 00-5.506 21.89c0 7.66 1.894 15.186 5.506 21.89l6.162-6.163a37.64 37.64 0 01-3.404-15.727 37.64 37.64 0 013.404-15.728l-6.162-6.162z" fill="#fff"/><path d="M50.128 11.853c-20.942 0-37.991 17.039-37.991 37.991 0 20.953 17.039 37.992 37.991 37.992 20.953 0 37.992-17.04 37.992-37.992 0-20.952-17.04-37.991-37.992-37.991zm21.38 25.511a24.473 24.473 0 013.247 10.014.369.369 0 01-.177.353 31.823 31.823 0 00-7.255 6.09.341.341 0 01-.385.104l-4.694-1.53a.36.36 0 01-.25-.302 32.675 32.675 0 00-3.59-11.054.368.368 0 01.03-.386l2.904-3.996a.395.395 0 01.302-.157h.084c3.101.687 6.286.916 9.45.656a.377.377 0 01.354.188l-.02.02zM59.434 52.748a.378.378 0 01-.084.281 24.853 24.853 0 01-9.076 6.579.332.332 0 01-.281 0 25.093 25.093 0 01-9.076-6.579.378.378 0 01-.084-.28 30.145 30.145 0 013.477-10.7.347.347 0 01.24-.178 27.175 27.175 0 015.589-.583c1.884 0 3.757.198 5.59.583a.353.353 0 01.239.177 30.354 30.354 0 013.476 10.7h-.01zm-.563-25.834s.125-.104.25-.104c.042 0 .094 0 .146.031 3.83 1.52 7.255 4.018 9.92 7.213a.345.345 0 01.052.386.357.357 0 01-.334.218 28.664 28.664 0 01-6.994-.78.37.37 0 01-.23-.167 29.498 29.498 0 01-2.903-6.422.345.345 0 01.104-.375h-.01zm-14-1.249a25.256 25.256 0 0110.524 0c.135.031.25.135.281.27a31.9 31.9 0 003.55 8.786.382.382 0 01-.021.406l-2.884 3.976a.361.361 0 01-.364.145 29.65 29.65 0 00-11.647 0 .36.36 0 01-.364-.145l-2.884-3.977a.381.381 0 01-.02-.405 31.903 31.903 0 003.549-8.785.373.373 0 01.28-.27zm-13.79 8.39c2.664-3.206 6.088-5.704 9.919-7.214a.35.35 0 01.396.073c.051.052.166.177.103.375a29.272 29.272 0 01-2.904 6.422.37.37 0 01-.228.166c-2.28.542-4.632.812-6.995.781a.357.357 0 01-.333-.218.345.345 0 01.052-.386h-.01zm-2.322 3.31a.367.367 0 01.323-.188h.031c3.175.25 6.36.031 9.451-.656a.352.352 0 01.375.146l2.904 3.997a.37.37 0 01.031.385 32.676 32.676 0 00-3.59 11.054.388.388 0 01-.25.302l-4.695 1.53a.379.379 0 01-.385-.104 31.824 31.824 0 00-7.255-6.09.389.389 0 01-.177-.353 24.422 24.422 0 013.248-10.013l-.01-.01zm1.135 25.646a.366.366 0 01-.312.25c-.073 0-.24 0-.354-.167a24.695 24.695 0 01-3.79-11.668.356.356 0 01.188-.343c.063-.031.23-.104.396.02a28.906 28.906 0 015.204 4.747.354.354 0 01.083.27 28.558 28.558 0 01-1.426 6.902l.01-.01zm10.284 9.503c-3.248-1.426-6.11-3.518-8.504-6.203a.376.376 0 01-.073-.385 31.85 31.85 0 002.29-9.191.358.358 0 01.25-.312l4.642-1.51s.073-.02.114-.02a.35.35 0 01.27.124 27.695 27.695 0 009.431 6.86.363.363 0 01.219.333v4.881a.352.352 0 01-.219.334 31.834 31.834 0 00-8.046 5.027.349.349 0 01-.385.052l.01.01zm16.372 1.03a.347.347 0 01-.27.292 25.032 25.032 0 01-12.282 0 .364.364 0 01-.271-.291.367.367 0 01.146-.375 29.03 29.03 0 016.13-3.487.331.331 0 01.281 0 29.557 29.557 0 016.131 3.487.382.382 0 01.146.375h-.01zm12.064-7.223a24.546 24.546 0 01-8.504 6.193.366.366 0 01-.385-.052 31.656 31.656 0 00-8.046-5.027.363.363 0 01-.218-.333V62.22c0-.145.083-.28.218-.333a27.592 27.592 0 009.43-6.86.35.35 0 01.271-.124c.042 0 .073 0 .114.02l4.643 1.51c.135.042.24.166.25.312a31.937 31.937 0 002.29 9.191.355.355 0 01-.073.385h.01zm2.436-3.216a.357.357 0 01-.354.167.359.359 0 01-.313-.25 29.597 29.597 0 01-1.426-6.901c0-.094.021-.198.084-.27a29.299 29.299 0 015.204-4.747.36.36 0 01.208-.073c.084 0 .146.031.188.052a.34.34 0 01.187.343 24.695 24.695 0 01-3.789 11.668l.01.01z" fill="#fff"/></svg><svg fill="none" viewBox="0 0 32 32" id="telegram" xmlns="http://www.w3.org/2000/svg"><g clip-path="url(#pclip0_2824_226)"><path fill-rule="evenodd" clip-rule="evenodd" d="M0 16c0 8.82 7.176 16 16 16 8.82 0 16-7.18 16-16S24.82 0 16 0 0 7.18 0 16zM5.942 4.97A14.877 14.877 0 0116 1.065c3.87 0 7.4 1.479 10.056 3.901l-1.188 1.188A13.201 13.201 0 0016 2.75c-3.412 0-6.522 1.29-8.87 3.407L5.941 4.969zm-.974.974A14.877 14.877 0 001.066 16c0 3.87 1.479 7.4 3.9 10.055l1.188-1.187A13.201 13.201 0 012.75 16c0-3.41 1.288-6.52 3.405-8.869L4.968 5.944zM5.94 27.03A14.877 14.877 0 0016 30.934c3.87 0 7.4-1.478 10.055-3.9l-1.188-1.188A13.201 13.201 0 0116 29.25c-3.412 0-6.523-1.29-8.871-3.407L5.94 27.03zM30.934 16a14.88 14.88 0 01-3.905 10.06l-1.187-1.188A13.201 13.201 0 0029.25 16c0-3.412-1.29-6.522-3.407-8.87l1.187-1.188A14.877 14.877 0 0130.934 16z" fill="#478BF9"/><path d="M20.644 11.132s1.133-.442 1.038.631c-.031.442-.314 1.989-.535 3.662l-.755 4.955s-.063.726-.63.852c-.566.126-1.416-.442-1.574-.568-.126-.095-2.36-1.515-3.147-2.21-.221-.189-.473-.567.031-1.01l3.305-3.156c.378-.378.755-1.262-.819-.189l-4.407 2.998s-.503.316-1.447.032l-2.047-.631s-.755-.474.535-.947c3.148-1.483 7.02-2.998 10.451-4.419z" fill="#110A1D"/></g><defs><clipPath id="pclip0_2824_226"><path fill="#fff" d="M0 0h32v32H0z"/></clipPath></defs></svg><svg fill="none" viewBox="0 0 32 32" id="tiktok" xmlns="http://www.w3.org/2000/svg"><g clip-path="url(#qclip0_2824_213)" fill-rule="evenodd" clip-rule="evenodd"><path d="M0 16c0 8.82 7.176 16 16 16 8.82 0 16-7.18 16-16S24.82 0 16 0 0 7.18 0 16zM5.942 4.97A14.877 14.877 0 0116 1.065c3.87 0 7.4 1.479 10.056 3.901l-1.188 1.188A13.201 13.201 0 0016 2.75c-3.412 0-6.522 1.29-8.87 3.407L5.941 4.969zm-.974.974A14.877 14.877 0 001.066 16c0 3.87 1.479 7.4 3.9 10.055l1.188-1.187A13.201 13.201 0 012.75 16c0-3.41 1.288-6.52 3.405-8.869L4.968 5.944zM5.94 27.03A14.877 14.877 0 0016 30.934c3.87 0 7.4-1.478 10.055-3.9l-1.188-1.188A13.201 13.201 0 0116 29.25c-3.412 0-6.523-1.29-8.871-3.407L5.94 27.03zM30.934 16a14.88 14.88 0 01-3.905 10.06l-1.187-1.188A13.201 13.201 0 0029.25 16c0-3.412-1.29-6.522-3.407-8.87l1.187-1.188A14.877 14.877 0 0130.934 16z" fill="#478BF9"/><path d="M17.012 9.925c.373 0 .675.302.675.675a2.7 2.7 0 002.7 2.7.675.675 0 110 1.35 4.05 4.05 0 01-2.7-1.032V18.7a3.375 3.375 0 11-3.375-3.375.675.675 0 110 1.35 2.025 2.025 0 102.025 2.025v-8.1c0-.373.303-.675.675-.675z" fill="#110A1D"/></g><defs><clipPath id="qclip0_2824_213"><path fill="#fff" d="M0 0h32v32H0z"/></clipPath></defs></svg><svg fill="none" viewBox="0 0 100 100" id="timer-line-2" xmlns="http://www.w3.org/2000/svg"><path d="M49.615 99.407c-12.698 0-25.386-4.83-35.056-14.5-19.329-19.328-19.329-50.772 0-70.101C23.927 5.438 36.376.286 49.615.286c13.24 0 25.689 5.152 35.057 14.52C104 34.135 104 65.579 84.672 84.908c-9.66 9.66-22.358 14.5-35.057 14.5zM17.161 82.306c17.893 17.892 47.005 17.892 64.898 0 17.892-17.893 17.892-47.006 0-64.898C73.389 8.738 61.866 3.97 49.605 3.97S25.82 8.748 17.15 17.408C-.742 35.3-.742 64.413 17.15 82.306h.01z" fill="#7DDACF"/><path d="M51.45 39.422l-9.18 12.865h5.506v9.18l9.18-12.854H51.45v-9.19z" fill="#7DDACF"/><path d="M49.606 32.272c-10.055 0-18.215 8.16-18.215 18.215 0 10.054 8.16 18.194 18.215 18.194 10.054 0 18.215-8.16 18.215-18.194 0-10.034-8.16-18.215-18.215-18.215zm0 34.16c-8.827 0-15.988-7.16-15.988-15.987s7.161-15.988 15.988-15.988c8.826 0 15.988 7.161 15.988 15.988s-7.162 15.988-15.988 15.988z" fill="#7DDACF"/><path d="M77.763 21.707c-7.515-7.526-17.518-11.658-28.156-11.658-10.637 0-20.63 4.143-28.155 11.658-15.52 15.519-15.52 40.78 0 56.31 7.765 7.765 17.955 11.648 28.155 11.648 10.2 0 20.39-3.883 28.156-11.648 15.519-15.519 15.519-40.78 0-56.31zm-28.156 53.49c-13.614 0-24.7-11.085-24.7-24.7 0-6.016 2.155-11.533 5.736-15.842l-3.019-3.018a2.23 2.23 0 010-3.144c.864-.874 2.27-.864 3.144 0l3.018 3.019c3.747-3.133 8.462-5.194 13.604-5.631v-2.04h-2.04a3.31 3.31 0 01-3.29-3.29v-1.717a3.296 3.296 0 013.29-3.29h8.535c1.8 0 3.29 1.468 3.29 3.29v1.717a3.31 3.31 0 01-3.29 3.29h-2.04v2.04c5.152.447 9.857 2.508 13.604 5.63l3.019-3.018a2.23 2.23 0 013.143 0 2.23 2.23 0 010 3.144l-3.019 3.018c3.581 4.31 5.736 9.815 5.736 15.842 0 13.615-11.086 24.7-24.7 24.7h-.02z" fill="#7DDACF"/></svg><svg fill="none" viewBox="0 0 32 32" id="twitter" xmlns="http://www.w3.org/2000/svg"><g clip-path="url(#sclip0_2824_152)"><path fill-rule="evenodd" clip-rule="evenodd" d="M0 16c0 8.82 7.176 16 16 16 8.82 0 16-7.18 16-16S24.82 0 16 0 0 7.18 0 16zM5.942 4.97A14.877 14.877 0 0116 1.065c3.87 0 7.4 1.479 10.056 3.901l-1.188 1.188A13.201 13.201 0 0016 2.75c-3.412 0-6.522 1.29-8.87 3.407L5.941 4.969zm-.974.974A14.877 14.877 0 001.066 16c0 3.87 1.479 7.4 3.9 10.055l1.188-1.187A13.201 13.201 0 012.75 16c0-3.41 1.288-6.52 3.405-8.869L4.968 5.944zM5.94 27.03A14.877 14.877 0 0016 30.934c3.87 0 7.4-1.478 10.055-3.9l-1.188-1.188A13.201 13.201 0 0116 29.25c-3.412 0-6.523-1.29-8.871-3.407L5.94 27.03zM30.934 16a14.88 14.88 0 01-3.905 10.06l-1.187-1.188A13.201 13.201 0 0029.25 16c0-3.412-1.29-6.522-3.407-8.87l1.187-1.188A14.877 14.877 0 0130.934 16z" fill="#478BF9"/><path d="M21.312 13.539v.374c0 3.768-2.754 8.087-7.791 8.087a7.416 7.416 0 01-4.188-1.291 5.366 5.366 0 004.054-1.171 2.66 2.66 0 01-1.587-.56 2.83 2.83 0 01-.971-1.42c.17.037.344.056.519.056.243 0 .486-.034.72-.101a2.712 2.712 0 01-1.578-.985 2.902 2.902 0 01-.616-1.803v-.037c.38.22.805.34 1.24.351a2.823 2.823 0 01-1.15-1.705 2.92 2.92 0 01.288-2.06 7.84 7.84 0 002.52 2.11c.974.513 2.04.806 3.13.862a2.479 2.479 0 01-.075-.651c-.02-.58.132-1.154.437-1.64a2.746 2.746 0 011.265-1.083 2.626 2.626 0 011.634-.132 2.703 2.703 0 011.41.867 5.493 5.493 0 001.74-.692 2.844 2.844 0 01-1.221 1.598 5.563 5.563 0 001.575-.471 5.74 5.74 0 01-1.355 1.497z" fill="#110A1D"/></g><defs><clipPath id="sclip0_2824_152"><path fill="#fff" d="M0 0h32v32H0z"/></clipPath></defs></svg><svg fill="none" viewBox="0 0 16 16" id="union" xmlns="http://www.w3.org/2000/svg"><path d="M14.17 3.719C12.798 1.84 11 .775 8.635.5a11.684 11.684 0 012.354 4.22c1.106-.229 2.154-.527 3.18-1.001zM4.25 5.523c-.42-.11-.828-.217-1.23-.341-.36-.116-.714-.249-1.068-.381-.2-.075-.4-.15-.601-.222C.162 6.67.274 9.636 1.345 11.386c.599-.188 1.193-.377 1.792-.567h.001l1.633-.516a11.48 11.48 0 01.006-4.641 76.544 76.544 0 00-.527-.14zm8.696-.365l-1.716.545c.316 1.533.304 3.09 0 4.594 1.16.369 2.29.726 3.431 1.083 1.125-1.926 1.113-4.852 0-6.766l-1.715.544zM5.72 10.227a10.424 10.424 0 01-.018-4.401c.239.014.473.03.705.047.54.038 1.066.076 1.59.076.525 0 1.05-.038 1.59-.076.232-.016.467-.033.706-.047.322 1.434.31 2.903-.006 4.395a16.81 16.81 0 00-4.568.006zm8.45 2.048c-1.36 1.879-3.163 2.938-5.529 3.225 1.09-1.276 1.868-2.657 2.343-4.214 1.1.21 2.143.527 3.185.99zM7.359.5c-2.366.28-4.17 1.346-5.575 3.283 1.101.34 2.138.662 3.21.995C5.49 3.157 6.263 1.782 7.358.5zm0 15c-2.36-.28-4.158-1.34-5.575-3.283l1.037-.32h.001l2.171-.67A11.673 11.673 0 007.36 15.5zM10.04 4.86a10.412 10.412 0 00-2.043-3.664C7.06 2.303 6.381 3.496 5.96 4.86a15.13 15.13 0 004.082 0zm-2.037 9.943a10.336 10.336 0 01-2.044-3.657c1.365-.193 2.7-.188 4.088-.006a10.567 10.567 0 01-2.044 3.663z" fill="#9DADF2"/></svg><svg fill="none" viewBox="0 0 32 32" id="vk" xmlns="http://www.w3.org/2000/svg"><g clip-path="url(#uclip0_2824_238)"><path fill-rule="evenodd" clip-rule="evenodd" d="M0 16c0 8.82 7.176 16 16 16 8.82 0 16-7.18 16-16S24.82 0 16 0 0 7.18 0 16zM5.942 4.97A14.877 14.877 0 0116 1.065c3.87 0 7.4 1.479 10.056 3.901l-1.188 1.188A13.201 13.201 0 0016 2.75c-3.412 0-6.522 1.29-8.87 3.407L5.941 4.969zm-.974.974A14.877 14.877 0 001.066 16c0 3.87 1.479 7.4 3.9 10.055l1.188-1.187A13.201 13.201 0 012.75 16c0-3.41 1.288-6.52 3.405-8.869L4.968 5.944zM5.94 27.03A14.877 14.877 0 0016 30.934c3.87 0 7.4-1.478 10.055-3.9l-1.188-1.188A13.201 13.201 0 0116 29.25c-3.412 0-6.523-1.29-8.871-3.407L5.94 27.03zM30.934 16a14.88 14.88 0 01-3.905 10.06l-1.187-1.188A13.201 13.201 0 0029.25 16c0-3.412-1.29-6.522-3.407-8.87l1.187-1.188A14.877 14.877 0 0130.934 16z" fill="#478BF9"/><path fill-rule="evenodd" clip-rule="evenodd" d="M9.311 12.54a.317.317 0 01.26-.14h2.213a.32.32 0 01.29.193c.135.298.265.599.395.897.3.69.593 1.365.908 1.938.223.406.446.738.673.974.096.1.19.18.28.239v-2.82l-.662-.867a.356.356 0 01-.04-.36.32.32 0 01.29-.194h3.075c.178 0 .322.152.322.34v3.187c.368-.383.655-.82.918-1.288.151-.27.292-.545.435-.827l.105-.205c.18-.35.369-.709.585-1.054a.318.318 0 01.268-.153h2.119c.1 0 .194.049.255.133a.355.355 0 01.056.294c-.405 1.623-1.195 2.757-1.948 3.837l-.089.128a10.327 10.327 0 012.403 3.476.357.357 0 01-.024.324.318.318 0 01-.27.155h-2.33a.312.312 0 01-.211-.082 6.944 6.944 0 01-.654-.706l-.117-.142a10.433 10.433 0 00-.453-.526c-.298-.315-.618-.573-1.048-.717v1.833c0 .171-.12.316-.282.337-2.614.351-4.372-1.007-5.556-2.747-1.138-1.671-1.773-3.73-2.174-5.032l-.037-.12a.356.356 0 01.045-.305zm.705.54c.404 1.298.997 3.07 1.984 4.52 1.049 1.54 2.517 2.682 4.671 2.5v-1.953c0-.099.04-.193.112-.258a.31.31 0 01.258-.078c.808.13 1.34.536 1.778 1 .172.182.334.379.489.567l.109.132c.165.198.327.386.503.557h1.696a9.58 9.58 0 00-2.239-2.962.354.354 0 01-.053-.46c.088-.13.177-.256.264-.383.682-.98 1.332-1.914 1.726-3.181h-1.512c-.162.273-.312.557-.462.85l-.102.2c-.144.282-.292.572-.45.855-.396.704-.874 1.395-1.608 1.948a.308.308 0 01-.335.025.343.343 0 01-.174-.302V13.08h-2.078l.31.405c.046.06.071.136.071.214v3.42a.35.35 0 01-.107.254.31.31 0 01-.252.084c-.393-.049-.73-.273-1.017-.57-.286-.298-.542-.69-.778-1.119-.331-.602-.645-1.325-.952-2.03a81.63 81.63 0 00-.288-.659h-1.564z" fill="#110A1D"/><path d="M12 17.6c-.987-1.45-1.58-3.222-1.984-4.52h1.564c.096.215.192.436.288.659.307.705.62 1.428.952 2.03.236.43.492.821.778 1.119.287.297.623.521 1.017.57a.31.31 0 00.252-.084.349.349 0 00.107-.254V13.7a.352.352 0 00-.071-.214l-.31-.405h2.078v3.576c0 .127.067.244.174.302a.308.308 0 00.335-.025c.734-.553 1.212-1.244 1.607-1.948.159-.283.307-.573.45-.856l.103-.199c.15-.293.3-.577.462-.85h1.512c-.394 1.267-1.044 2.201-1.726 3.181l-.264.382a.354.354 0 00.053.46 9.58 9.58 0 012.239 2.963H19.92a7.05 7.05 0 01-.503-.557 35.681 35.681 0 01-.11-.132 11.327 11.327 0 00-.488-.567c-.438-.464-.97-.87-1.777-1a.31.31 0 00-.259.078.349.349 0 00-.112.258V20.1c-2.154.182-3.622-.96-4.671-2.5z" fill="#110A1D"/></g><defs><clipPath id="uclip0_2824_238"><path fill="#fff" d="M0 0h32v32H0z"/></clipPath></defs></svg><svg fill="none" viewBox="0 0 109 50" id="world-X-line-2" xmlns="http://www.w3.org/2000/svg"><g fill="#478BF9"><path d="M24.584 49.39C11.08 49.39.09 38.4.09 24.892.089 11.388 11.079.398 24.584.398c13.506 0 24.496 10.99 24.496 24.495 0 13.506-10.99 24.496-24.496 24.496zm0-47.228c-12.533 0-22.73 10.198-22.73 22.732 0 12.533 10.197 22.73 22.73 22.73 12.534 0 22.732-10.197 22.732-22.73 0-12.534-10.198-22.732-22.732-22.732zM84.468 49.39a.88.88 0 110-1.759c12.534 0 22.731-10.198 22.731-22.731 0-12.534-10.197-22.731-22.73-22.731a.88.88 0 110-1.76c13.505 0 24.495 10.99 24.495 24.496 0 13.506-10.99 24.496-24.496 24.496v-.01z"/><path d="M48.882 23.921H38.154v2.115h10.728V23.92zm-36.936 0H1.218v2.115h10.728V23.92zm14.33 14.324H24.16v10.728h2.114V38.245zm0-37.261H24.16v10.728h2.114V.984z"/><path d="M37.83 11.557c-7.337-7.337-19.237-7.337-26.58 0-7.336 7.337-7.336 19.238 0 26.58 7.338 7.337 19.238 7.337 26.58 0 7.337-7.337 7.337-19.238 0-26.58zm-9.657 1.59c2.14.664 4.06 1.904 5.552 3.591l.288.325-.422.097a35.39 35.39 0 01-3.545.638l-.221.031-.062-.216a16.245 16.245 0 00-.726-2.012 11.06 11.06 0 00-1.152-2.058l-.463-.632.751.231v.005zm-8.587 11.114l.01-.268c.052-1.626.232-3.18.54-4.61l.047-.226.231.02c2.706.237 5.598.227 8.289-.025l.231-.021.052.226c.314 1.446.494 3.005.54 4.636v.268h-9.94zm9.94 1.193v.268c-.056 1.63-.236 3.19-.55 4.636l-.052.226-.231-.02a47.432 47.432 0 00-8.29-.026l-.23.02-.047-.226a25.789 25.789 0 01-.54-4.61l-.01-.268h9.95zM24.556 12.7c1.497 0 3.02 1.898 3.972 4.96l.098.308-.324.026a45.882 45.882 0 01-7.502.02l-.324-.025.098-.314c.951-3.072 2.48-4.98 3.982-4.98v.005zm-9.22 4.095a12.263 12.263 0 015.603-3.643l.756-.231-.468.638c-.422.576-.813 1.27-1.152 2.053-.273.617-.52 1.307-.736 2.048l-.062.21-.221-.025a34.99 34.99 0 01-3.581-.623l-.427-.098.288-.329zm-3.005 7.188a12.286 12.286 0 011.863-5.665l.103-.16.185.047c1.317.334 2.737.602 4.23.792l.277.036-.057.278a27.06 27.06 0 00-.53 4.698v.252h-6.086l.02-.278h-.005zm1.966 7.573l-.103-.16a12.266 12.266 0 01-1.863-5.664l-.02-.278h6.081v.252a28.04 28.04 0 00.535 4.698l.057.278-.278.036a35.77 35.77 0 00-4.23.792l-.185.046h.006zm6.642 5.012a12.264 12.264 0 01-5.603-3.643l-.288-.33.427-.097a36.473 36.473 0 013.58-.623l.222-.025.062.21c.216.741.463 1.431.736 2.048.344.788.73 1.477 1.152 2.058l.468.638-.756-.231v-.005zm3.617.447c-1.502 0-3.03-1.909-3.982-4.98l-.098-.314.324-.026a46.215 46.215 0 017.502.02l.324.027-.098.308c-.957 3.056-2.48 4.96-3.972 4.96v.005zm9.168-4.039a12.28 12.28 0 01-5.551 3.592l-.751.231.463-.633c.422-.576.808-1.27 1.152-2.058.273-.633.52-1.306.726-2.011l.062-.216.22.03a35.39 35.39 0 013.546.638l.422.103-.288.324zm3.052-7.244a12.255 12.255 0 01-1.899 5.727l-.103.16-.185-.047a34.702 34.702 0 00-4.198-.818l-.278-.036.056-.273c.309-1.492.49-3.082.535-4.733v-.253h6.087l-.02.278.005-.005zm-6.061-1.471v-.252a27.631 27.631 0 00-.54-4.734l-.057-.273.278-.036c1.482-.2 2.891-.473 4.198-.818l.185-.046.103.16a12.178 12.178 0 011.899 5.726l.02.278H30.72l-.005-.005z"/></g><path d="M84.839 49.42H25.72a.88.88 0 110-1.76h59.12a.88.88 0 110 1.76zm.134-47.231H25.855a.88.88 0 110-1.76h59.118a.88.88 0 110 1.76z" fill="#478BF9"/></svg><svg fill="none" viewBox="0 0 100 222" id="world-line-2" xmlns="http://www.w3.org/2000/svg"><path d="M.547 50.461C.547 23.14 22.78.906 50.102.906c27.323 0 49.556 22.233 49.556 49.555 0 27.323-22.233 49.556-49.556 49.556C22.78 100.017.547 77.784.547 50.461zm95.54 0c0-25.355-20.63-45.985-45.985-45.985S4.117 25.106 4.117 50.46c0 25.356 20.63 45.986 45.985 45.986 25.356 0 45.986-20.63 45.986-45.986zM.544 171.607a1.78 1.78 0 113.56 0c0 25.356 20.63 45.986 45.985 45.986 25.356 0 45.986-20.63 45.986-45.986a1.78 1.78 0 113.56 0c0 27.323-22.234 49.556-49.556 49.556-27.323 0-49.556-22.233-49.556-49.556h.021z" fill="#478BF9"/><path d="M98.143 49.264H76.441v4.278h21.702v-4.278zm-74.723 0H1.72v4.278h21.7v-4.278zm28.99 28.978h-4.277v21.702h4.278V78.242zm0-75.379h-4.277v21.701h4.278V2.863z" fill="#478BF9"/><path d="M75.786 24.252c-14.843-14.843-38.918-14.843-53.771 0-14.843 14.843-14.843 38.918 0 53.771 14.842 14.843 38.918 14.843 53.77 0 14.844-14.842 14.844-38.918 0-53.77zm-19.537 3.216a24.787 24.787 0 0111.23 7.266l.584.655-.854.198a71.337 71.337 0 01-7.172 1.29l-.447.063-.125-.437a32.85 32.85 0 00-1.468-4.07c-.697-1.592-1.478-2.987-2.331-4.163l-.937-1.28 1.52.468v.01zM38.877 49.951l.02-.541c.105-3.29.469-6.433 1.093-9.326l.094-.458.468.041a94.965 94.965 0 0016.769-.052l.468-.041.104.458c.635 2.925 1 6.078 1.093 9.378v.541H38.877zm20.11 2.415v.541c-.115 3.3-.48 6.454-1.114 9.378l-.105.458-.468-.041c-5.444-.51-11.293-.52-16.768-.052l-.469.041-.093-.458c-.625-2.893-.99-6.026-1.093-9.326l-.021-.541h20.13zM48.93 26.563c3.03 0 6.11 3.84 8.036 10.034l.198.624-.656.052a92.817 92.817 0 01-15.176.042l-.656-.052.198-.635c1.926-6.214 5.017-10.076 8.056-10.076v.01zm-18.65 8.285a24.809 24.809 0 0111.335-7.37l1.53-.468-.947 1.291c-.853 1.166-1.645 2.571-2.331 4.153a33.593 33.593 0 00-1.489 4.143l-.125.427-.447-.053a70.813 70.813 0 01-7.245-1.259l-.864-.198.583-.666zM24.201 49.39a24.852 24.852 0 013.767-11.46l.209-.323.374.094a71.857 71.857 0 008.556 1.603l.562.073-.114.562c-.625 3.018-.979 6.214-1.072 9.503v.51H24.169l.042-.562h-.01zm3.976 15.321l-.209-.322a24.812 24.812 0 01-3.767-11.46l-.042-.562h12.303v.51c.104 3.289.468 6.495 1.082 9.503l.115.562-.562.073a72.233 72.233 0 00-8.556 1.603l-.375.093h.01zM41.614 74.85a24.808 24.808 0 01-11.335-7.37l-.583-.666.864-.198c2.29-.52 4.726-.947 7.245-1.26l.447-.051.125.427a33.6 33.6 0 001.489 4.142c.697 1.593 1.478 2.987 2.331 4.164l.947 1.29-1.53-.468v-.01zm7.318.905c-3.04 0-6.131-3.862-8.057-10.076l-.198-.634.656-.052a93.49 93.49 0 0115.176.041l.656.052-.198.625c-1.936 6.183-5.017 10.034-8.035 10.034v.01zm18.548-8.17a24.842 24.842 0 01-11.231 7.264l-1.52.469.937-1.28c.853-1.166 1.634-2.571 2.331-4.164a35.326 35.326 0 001.468-4.07l.125-.437.447.063a71.62 71.62 0 017.172 1.29l.853.209-.582.655zm6.172-14.656a24.79 24.79 0 01-3.84 11.585l-.209.322-.375-.093c-2.633-.698-5.495-1.25-8.493-1.655l-.562-.073.114-.552c.625-3.018.99-6.235 1.083-9.576v-.51h12.313l-.041.562.01-.01zM61.391 49.95v-.51c-.105-3.341-.469-6.568-1.093-9.576l-.115-.552.562-.072c2.998-.406 5.85-.958 8.494-1.655l.374-.094.209.323a24.638 24.638 0 013.84 11.584l.042.563H61.401l-.01-.01zM.484 172.357V52.762a1.78 1.78 0 113.56 0v119.595a1.78 1.78 0 11-3.56 0zm95.551.271V53.032a1.78 1.78 0 113.56 0v119.596a1.779 1.779 0 11-3.56 0z" fill="#478BF9"/></svg><svg fill="none" viewBox="0 0 32 32" id="youtube" xmlns="http://www.w3.org/2000/svg"><g clip-path="url(#xclip0_2824_201)"><path fill-rule="evenodd" clip-rule="evenodd" d="M0 16c0 8.82 7.176 16 16 16 8.82 0 16-7.18 16-16S24.82 0 16 0 0 7.18 0 16zM5.942 4.97A14.877 14.877 0 0116 1.065c3.87 0 7.4 1.479 10.056 3.901l-1.188 1.188A13.201 13.201 0 0016 2.75c-3.412 0-6.522 1.29-8.87 3.407L5.941 4.969zm-.974.974A14.877 14.877 0 001.066 16c0 3.87 1.479 7.4 3.9 10.055l1.188-1.187A13.201 13.201 0 012.75 16c0-3.41 1.288-6.52 3.405-8.869L4.968 5.944zM5.94 27.03A14.877 14.877 0 0016 30.934c3.87 0 7.4-1.478 10.055-3.9l-1.188-1.188A13.201 13.201 0 0116 29.25c-3.412 0-6.523-1.29-8.871-3.407L5.94 27.03zM30.934 16a14.88 14.88 0 01-3.905 10.06l-1.187-1.188A13.201 13.201 0 0029.25 16c0-3.412-1.29-6.522-3.407-8.87l1.187-1.188A14.877 14.877 0 0130.934 16z" fill="#478BF9"/><path d="M14.667 18l3.46-2-3.46-2v4zm7.706-5.22c.087.313.147.733.187 1.267.047.533.067.993.067 1.393l.04.56c0 1.46-.107 2.533-.294 3.22-.166.6-.553.987-1.153 1.153-.313.087-.887.147-1.767.187a44.09 44.09 0 01-2.393.067l-1.06.04c-2.793 0-4.533-.107-5.22-.294-.6-.166-.987-.553-1.153-1.153-.087-.313-.147-.733-.187-1.267a16.042 16.042 0 01-.067-1.393l-.04-.56c0-1.46.107-2.533.294-3.22.166-.6.553-.987 1.153-1.153.313-.087.887-.147 1.767-.187a44.09 44.09 0 012.393-.067l1.06-.04c2.793 0 4.533.107 5.22.294.6.166.987.553 1.153 1.153z" fill="#1E1231"/></g><defs><clipPath id="xclip0_2824_201"><path fill="#fff" d="M0 0h32v32H0z"/></clipPath></defs></svg></svg>